<?xml version="1.0" encoding="UTF-8" standalone="no"?>
<svg
   version="1.1"
   width="860px"
   height="867px"
   style="shape-rendering:geometricPrecision; text-rendering:geometricPrecision; image-rendering:optimizeQuality; fill-rule:evenodd; clip-rule:evenodd"
   id="svg4"
   sodipodi:docname="flecha.svg"
   inkscape:version="1.3 (0e150ed6c4, 2023-07-21)"
   inkscape:export-filename="flecha.svg"
   inkscape:export-xdpi="96"
   inkscape:export-ydpi="96"
   xmlns:inkscape="http://www.inkscape.org/namespaces/inkscape"
   xmlns:sodipodi="http://sodipodi.sourceforge.net/DTD/sodipodi-0.dtd"
   xmlns="http://www.w3.org/2000/svg"
   xmlns:svg="http://www.w3.org/2000/svg">
  <defs
     id="defs4" />
  <sodipodi:namedview
     id="namedview4"
     pagecolor="#505050"
     bordercolor="#eeeeee"
     borderopacity="1"
     inkscape:showpageshadow="0"
     inkscape:pageopacity="0"
     inkscape:pagecheckerboard="0"
     inkscape:deskcolor="#505050"
     inkscape:zoom="0.60553633"
     inkscape:cx="430.19714"
     inkscape:cy="431.84857"
     inkscape:window-width="1366"
     inkscape:window-height="745"
     inkscape:window-x="-8"
     inkscape:window-y="-8"
     inkscape:window-maximized="1"
     inkscape:current-layer="svg4" />
  <g
     id="g2"
     style="fill:#3775b5;fill-opacity:1;stroke-width:30;stroke-dasharray:none;stroke:#d4bc88;stroke-opacity:1">
    <path
       style="opacity:1;fill:#3775b5;fill-opacity:1;stroke-width:30;stroke-dasharray:none;stroke:#d4bc88;stroke-opacity:1"
       fill="#12a19a"
       d="M 384.5,589.5 C 385.167,589.5 385.5,589.167 385.5,588.5C 386.043,588.44 386.376,588.107 386.5,587.5C 293.169,586.5 199.836,586.167 106.5,586.5C 95.7947,586.647 86.4614,583.147 78.5,576C 61.6921,559.231 49.8587,539.397 43,516.5C 25.4536,455.622 25.1202,394.622 42,333.5C 48.7747,309.098 61.2747,288.265 79.5,271C 87.3123,264.426 96.3123,261.259 106.5,261.5C 106.5,260.5 106.5,259.5 106.5,258.5C 199.167,258.667 291.834,258.5 384.5,258C 372.599,241.319 364.766,222.819 361,202.5C 352.65,162.918 355.65,124.252 370,86.5C 376.124,71.3893 385.291,58.556 397.5,48C 410.196,38.7514 423.862,37.0847 438.5,43C 443.014,46.0912 447.347,49.4245 451.5,53C 546.096,136.258 640.096,220.258 733.5,305C 759.303,329.136 784.803,353.636 810,378.5C 833.099,403.703 835.765,431.037 818,460.5C 815.667,463.5 813.333,466.5 811,469.5C 688.5,580.667 566,691.833 443.5,803C 420.885,813.579 401.718,809.079 386,789.5C 368.178,763.701 358.511,735.035 357,703.5C 353.793,667.204 360.459,632.871 377,600.5C 379.51,596.805 382.01,593.138 384.5,589.5 Z"
       id="path2" />
  </g>
  <g
     id="g3">
    <path
       style="opacity:1"
       fill="#2caba4"
       d="M 106.5,587.5 C 106.5,587.167 106.5,586.833 106.5,586.5C 199.836,586.167 293.169,586.5 386.5,587.5C 386.376,588.107 386.043,588.44 385.5,588.5C 292.668,587.501 199.668,587.167 106.5,587.5 Z"
       id="path3" />
  </g>
  <g
     id="g4">
    <path
       style="opacity:1"
       fill="#e8f1f1"
       d="M 106.5,587.5 C 199.668,587.167 292.668,587.501 385.5,588.5C 385.5,589.167 385.167,589.5 384.5,589.5C 291.833,588.833 199.167,588.167 106.5,587.5 Z"
       id="path4" />
  </g>
</svg>
